<mxfile host="app.diagrams.net" agent="Mozilla/5.0 (Windows NT 10.0; Win64; x64) AppleWebKit/537.36 (KHTML, like Gecko) Chrome/131.0.0.0 Safari/537.36" version="25.0.3">
  <diagram name="PÃ¡gina-1" id="TFt5Uz4qV56ppaa2q5UH">
    <mxGraphModel dx="1386" dy="777" grid="1" gridSize="10" guides="1" tooltips="1" connect="1" arrows="1" fold="1" page="1" pageScale="1" pageWidth="1600" pageHeight="900" math="0" shadow="0">
      <root>
        <mxCell id="0" />
        <mxCell id="1" parent="0" />
        <mxCell id="z-NuwKLQwU8QDikK5S8w-1" value="" style="sketch=0;pointerEvents=1;shadow=0;dashed=0;html=1;strokeColor=none;fillColor=#434445;aspect=fixed;labelPosition=center;verticalLabelPosition=bottom;verticalAlign=top;align=center;outlineConnect=0;shape=mxgraph.vvd.storage;" vertex="1" parent="1">
          <mxGeometry x="400" y="240" width="37.5" height="50" as="geometry" />
        </mxCell>
        <mxCell id="z-NuwKLQwU8QDikK5S8w-2" value="" style="sketch=0;pointerEvents=1;shadow=0;dashed=0;html=1;strokeColor=none;fillColor=#434445;aspect=fixed;labelPosition=center;verticalLabelPosition=bottom;verticalAlign=top;align=center;outlineConnect=0;shape=mxgraph.vvd.datastore;" vertex="1" parent="1">
          <mxGeometry x="710" y="240" width="50" height="39" as="geometry" />
        </mxCell>
        <mxCell id="z-NuwKLQwU8QDikK5S8w-3" value="" style="sketch=0;pointerEvents=1;shadow=0;dashed=0;html=1;strokeColor=none;fillColor=#434445;aspect=fixed;labelPosition=center;verticalLabelPosition=bottom;verticalAlign=top;align=center;outlineConnect=0;shape=mxgraph.vvd.disk;" vertex="1" parent="1">
          <mxGeometry x="80" y="200" width="35" height="50" as="geometry" />
        </mxCell>
        <mxCell id="z-NuwKLQwU8QDikK5S8w-4" value="" style="sketch=0;pointerEvents=1;shadow=0;dashed=0;html=1;strokeColor=none;fillColor=#434445;aspect=fixed;labelPosition=center;verticalLabelPosition=bottom;verticalAlign=top;align=center;outlineConnect=0;shape=mxgraph.vvd.vm_group;" vertex="1" parent="1">
          <mxGeometry x="680" y="360" width="49.5" height="50" as="geometry" />
        </mxCell>
      </root>
    </mxGraphModel>
  </diagram>
</mxfile>
